<svg width="708" height="191" viewBox="0 0 708 191" fill="none" xmlns="http://www.w3.org/2000/svg">
<path d="M263.946 99.6982C262.106 113.727 253.06 122.16 239.491 122.16C223.085 122.16 213.349 111.351 213.349 93.0286C213.349 74.7064 223.085 63.8971 239.491 63.8971C253.06 63.8971 262.106 72.1766 263.946 86.1291H253.826C252.293 77.4663 247.003 72.3299 239.491 72.3299C229.985 72.3299 224.312 80.0728 224.312 93.0286C224.312 105.985 229.985 113.727 239.491 113.727C247.08 113.727 252.293 108.514 253.826 99.6982H263.946ZM287.966 122.16C275.394 122.16 267.881 114.724 267.881 102.151C267.881 89.5788 275.394 82.1426 287.966 82.1426C300.539 82.1426 307.975 89.5788 307.975 102.151C307.975 114.724 300.539 122.16 287.966 122.16ZM287.966 114.111C294.099 114.111 297.702 109.664 297.702 102.151C297.702 94.6385 294.099 90.1155 287.966 90.1155C281.833 90.1155 278.23 94.6385 278.23 102.151C278.23 109.664 281.833 114.111 287.966 114.111ZM337.078 82.1426C345.588 82.1426 350.571 87.9689 350.571 97.935V121.394H340.451V98.395C340.451 93.182 337.692 90.1155 332.939 90.1155C327.572 90.1155 324.429 94.0252 324.429 100.542V121.394H314.31V82.9093H324.429V96.4018H324.582C324.582 87.4323 329.259 82.1426 337.078 82.1426ZM385.886 82.9093H396.005V139.026H385.886V108.131H385.732C385.732 116.947 380.596 122.16 372.01 122.16C362.35 122.16 356.677 114.724 356.677 102.151C356.677 89.5788 362.35 82.1426 372.01 82.1426C380.596 82.1426 385.732 87.3556 385.732 96.0951H385.886V82.9093ZM376.686 114.111C382.819 114.111 386.422 109.664 386.422 102.151C386.422 94.6385 382.819 90.1921 376.686 90.1921C370.553 90.1921 366.95 94.6385 366.95 102.151C366.95 109.664 370.553 114.111 376.686 114.111ZM429.442 82.9093H439.562V121.394H429.442V107.824H429.289C429.289 116.794 424.842 122.16 417.253 122.16C408.973 122.16 404.067 116.257 404.067 106.368V82.9093H414.186V105.908C414.186 111.121 416.87 114.111 421.393 114.111C426.452 114.111 429.442 110.278 429.442 103.685V82.9093ZM483.787 102.151V103.301H455.729C456.112 110.354 459.485 114.494 464.928 114.494C469.681 114.494 472.978 111.887 473.974 107.671H483.787C482.407 116.794 475.354 122.16 464.928 122.16C452.969 122.16 445.916 114.724 445.916 102.151C445.916 89.5022 452.969 82.1426 464.928 82.1426C476.734 82.1426 483.787 89.5022 483.787 102.151ZM464.928 89.7322C459.792 89.7322 456.495 93.4119 455.805 99.8515H473.898C473.284 93.4119 469.988 89.7322 464.928 89.7322ZM512.024 82.1426C514.248 82.1426 516.394 82.6026 517.927 83.3692L515.014 92.4153C513.481 91.5721 511.564 91.0354 509.648 91.0354C503.745 91.0354 500.218 95.8651 500.218 103.991V121.394H490.099V82.9093H500.218V98.7783H500.372C500.372 88.2756 504.742 82.1426 512.024 82.1426ZM569.19 82.1426C577.47 82.1426 582.376 87.8156 582.376 97.5517V121.394H572.257V98.0117C572.257 93.0286 569.574 90.1155 565.051 90.1155C559.991 90.1155 557.001 93.8719 557.001 100.158V121.394H546.882V98.0117C546.882 93.0286 544.275 90.1155 539.752 90.1155C534.616 90.1155 531.626 93.8719 531.626 100.158V121.394H521.507V82.9093H531.626V96.2484H531.779C531.779 87.3556 536.456 82.1426 544.198 82.1426C552.248 82.1426 557.001 87.5856 557.001 96.2484H557.154C557.154 87.3556 561.601 82.1426 569.19 82.1426ZM617.713 82.9093H627.832V121.394H617.713V108.131H617.56C617.56 116.947 612.423 122.16 603.837 122.16C594.178 122.16 588.505 114.724 588.505 102.151C588.505 89.5788 594.178 82.1426 603.837 82.1426C612.423 82.1426 617.56 87.3556 617.56 96.0951H617.713V82.9093ZM608.514 114.111C614.647 114.111 618.25 109.204 618.25 102.151C618.25 95.0218 614.647 90.1155 608.514 90.1155C602.381 90.1155 598.778 94.6385 598.778 102.151C598.778 109.664 602.381 114.111 608.514 114.111ZM658.203 82.1426C660.426 82.1426 662.573 82.6026 664.106 83.3692L661.193 92.4153C659.66 91.5721 657.743 91.0354 655.827 91.0354C649.924 91.0354 646.397 95.8651 646.397 103.991V121.394H636.278V82.9093H646.397V98.7783H646.551C646.551 88.2756 650.92 82.1426 658.203 82.1426ZM689.151 101.231L707.243 121.394H694.824L677.958 101.691H677.805V121.394H667.685V62.3639H677.805V101.001H677.958L693.52 82.9093H705.48L689.151 101.231Z" fill="white"/>
<rect x="95.1968" y="5.62064" width="126.68" height="126.68" rx="27.8208" transform="rotate(45 95.1968 5.62064)" stroke="white" stroke-width="7.94879"/>
<g clip-path="url(#clip0_36_2132)">
<path d="M113.067 41.1663V64.4658C111.886 64.3943 110.694 64.3577 109.49 64.3577C82.008 64.3577 59.7291 83.3442 59.7291 106.765C59.7291 114.359 62.0724 121.489 66.1756 127.654C59.3842 118.607 55.3589 107.364 55.3589 95.1816C55.3589 65.2846 79.5932 41.0503 109.49 41.0503C110.692 41.0503 111.884 41.09 113.067 41.1663Z" fill="white"/>
<path d="M113.067 125.934V149.31C112.868 149.312 112.668 149.313 112.469 149.313C83.7805 149.313 60.5239 130.295 60.5239 106.835C60.5239 102.821 61.2043 98.9387 62.4761 95.2568C63.562 98.4586 65.0802 101.506 66.9704 104.347C73.9812 113.684 83.9395 120.679 95.4652 123.952C95.4748 123.955 95.4843 123.957 95.4938 123.96C100.195 125.292 105.156 126.006 110.285 126.006C111.218 126.006 112.145 125.982 113.067 125.934Z" fill="white"/>
</g>
<defs>
<clipPath id="clip0_36_2132">
<rect width="57.7082" height="108.263" fill="white" transform="translate(55.3589 41.0503)"/>
</clipPath>
</defs>
</svg>
